<svg xmlns="http://www.w3.org/2000/svg" width="512" height="512">
  <path d="M0 0 C1.87 -0.02 3.75 -0.06 5.62 -0.10 C26.68 -0.61 26.68 -0.61 34.72 6.41 C39.39 12.15 42.17 17.84 41.72 25.41 C40.44 30.83 38.64 36.03 36.79 41.28 C36.28 42.77 35.77 44.25 35.26 45.74 C32.02 55.11 28.48 64.30 24.47 73.37 C22.79 77.19 21.33 81.05 19.91 84.97 C15.65 96.63 10.62 107.99 5.72 119.41 C5.30 120.40 4.87 121.40 4.43 122.43 C4.02 123.39 3.61 124.34 3.19 125.32 C2.80 126.24 2.40 127.16 2.00 128.10 C1.24 129.86 0.48 131.63 -0.28 133.39 C-2.25 137.97 -4.14 142.57 -5.96 147.22 C-9.02 154.55 -13.69 162.12 -21.28 165.41 C-28.26 166.50 -35.26 166.73 -42.32 167.02 C-44.86 167.13 -47.40 167.25 -49.95 167.36 C-53.94 167.54 -57.92 167.72 -61.91 167.88 C-65.78 168.03 -69.64 168.21 -73.50 168.39 C-74.69 168.44 -75.88 168.48 -77.11 168.52 C-83.35 168.84 -87.57 169.12 -92.28 173.41 C-93.91 175.77 -93.91 175.77 -94.28 178.41 C-92.01 185.78 -85.35 191.91 -80.33 197.57 C-76.49 201.92 -72.91 206.38 -69.53 211.09 C-69.11 211.67 -68.69 212.24 -68.26 212.84 C-66.29 215.64 -64.77 217.99 -64.28 221.41 C-64.05 222.56 -64.05 222.56 -63.83 223.74 C-63.18 230.78 -65.18 234.84 -69.59 240.27 C-75.88 247.56 -83.08 254.03 -90.28 260.41 C-90.93 260.99 -91.58 261.58 -92.25 262.18 C-92.87 262.73 -93.50 263.28 -94.14 263.85 C-94.70 264.34 -95.25 264.83 -95.82 265.34 C-97.28 266.41 -97.28 266.41 -99.28 266.41 C-99.28 267.07 -99.28 267.73 -99.28 268.41 C-101.14 269.99 -103.00 271.45 -104.96 272.91 C-106.17 273.81 -107.38 274.73 -108.59 275.64 C-109.21 276.10 -109.83 276.56 -110.47 277.04 C-113.14 279.06 -115.77 281.15 -118.40 283.22 C-126.74 289.68 -135.51 295.54 -144.28 301.41 C-145.01 301.90 -145.74 302.39 -146.50 302.90 C-156.41 309.52 -166.56 315.56 -177.06 321.21 C-179.23 322.38 -181.39 323.56 -183.56 324.75 C-192.92 329.84 -202.48 334.28 -212.25 338.51 C-215.10 339.77 -217.90 341.12 -220.71 342.47 C-226.05 344.93 -231.47 347.13 -236.96 349.22 C-238.12 349.67 -238.12 349.67 -239.30 350.13 C-244.86 352.20 -250.32 353.38 -256.28 353.41 C-257.28 352.41 -257.28 352.41 -257.56 349.01 C-257.48 343.52 -255.66 338.76 -253.78 333.66 C-253.41 332.65 -253.05 331.64 -252.68 330.60 C-251.56 327.53 -250.42 324.46 -249.28 321.41 C-248.79 320.10 -248.79 320.10 -248.29 318.76 C-243.08 304.92 -236.80 291.66 -230.28 278.41 C-229.33 276.46 -228.39 274.52 -227.44 272.58 C-223.28 264.07 -219.04 255.71 -214.04 247.65 C-209.88 240.89 -206.09 233.92 -202.28 226.97 C-201.93 226.33 -201.58 225.69 -201.22 225.04 C-199.84 222.53 -198.46 220.02 -197.09 217.52 C-194.45 212.71 -191.78 207.93 -189.09 203.16 C-188.74 202.54 -188.39 201.92 -188.03 201.28 C-186.59 198.73 -185.15 196.18 -183.70 193.63 C-181.63 189.96 -179.69 186.39 -178.28 182.41 C-182.84 185.25 -186.54 188.38 -190.30 192.20 C-190.86 192.75 -191.41 193.31 -191.98 193.88 C-193.14 195.04 -194.30 196.21 -195.45 197.38 C-197.20 199.14 -198.96 200.90 -200.71 202.66 C-206.44 208.41 -212.01 214.22 -217.28 220.41 C-218.65 221.89 -220.02 223.37 -221.40 224.84 C-227.28 231.36 -232.50 238.38 -237.76 245.40 C-239.08 247.15 -240.42 248.90 -241.76 250.64 C-250.75 262.41 -258.65 274.80 -266.17 287.55 C-267.26 289.38 -268.39 291.20 -269.52 293.01 C-274.72 301.37 -279.05 309.95 -283.17 318.88 C-284.88 322.60 -286.74 326.22 -288.65 329.84 C-299.68 351.69 -307.50 375.64 -313.24 399.37 C-315.71 409.42 -318.20 418.47 -327.28 424.41 C-333.19 427.27 -338.91 428.44 -345.28 426.41 C-350.95 423.26 -356.94 418.31 -359.09 412.03 C-359.15 411.16 -359.21 410.30 -359.28 409.41 C-359.36 408.27 -359.44 407.14 -359.53 405.97 C-359.23 390.10 -353.39 365.42 -345.24 351.66 C-343.98 348.72 -344.01 346.35 -343.99 343.15 C-343.98 341.88 -343.96 340.61 -343.95 339.30 C-343.94 338.28 -343.94 338.28 -343.94 337.24 C-343.93 335.09 -343.91 332.93 -343.89 330.77 C-343.84 326.15 -343.81 321.53 -343.78 316.91 C-343.40 262.47 -343.40 262.47 -339.03 238.09 C-338.81 236.86 -338.60 235.62 -338.38 234.35 C-330.75 192.00 -313.66 150.88 -286.28 117.41 C-285.52 116.48 -284.77 115.55 -283.99 114.59 C-282.46 112.72 -280.93 110.85 -279.39 108.98 C-278.01 107.30 -276.65 105.60 -275.32 103.89 C-273.11 101.21 -270.76 98.83 -268.28 96.41 C-267.04 95.16 -265.80 93.91 -264.57 92.66 C-263.20 91.29 -261.83 89.91 -260.46 88.53 C-259.79 87.85 -259.12 87.17 -258.42 86.46 C-245.39 73.37 -231.00 62.08 -215.28 52.41 C-214.56 51.94 -213.85 51.47 -213.12 50.99 C-208.01 47.64 -202.57 44.97 -197.09 42.29 C-194.56 41.05 -192.05 39.77 -189.55 38.46 C-161.43 23.77 -130.29 15.36 -99.28 9.41 C-98.33 9.22 -97.39 9.03 -96.42 8.83 C-83.56 6.26 -70.62 4.65 -57.59 3.22 C-56.83 3.13 -56.07 3.05 -55.28 2.96 C-36.90 0.93 -18.48 0.16 0 0 Z " fill="#000000" transform="translate(414.28,41.59)" shape-rendering="geometricPrecision"/>
</svg>
