<svg xmlns="http://www.w3.org/2000/svg" version="1.1" height="2048" width="2048" viewBox="0 0 2048 2048">
    <g transform="translate(280, 280) scale(0.7)">
        <path fill="rgb(0,0,0)" stroke="rgb(0,0,0)" stroke-width="1" opacity="0" d="M 0 0 L 1785 0.5 L 1754.5 2 L 1753.5 3 L 1743.5 3 L 1742.5 4 L 1706.5 7 L 1705.5 8 L 1699.5 8 L 1692.5 10 L 1662.5 14 L 1618.5 23 L 1580.5 33 L 1537.5 48 L 1534.5 48 L 1499.5 61 L 1454.5 80 L 1383.5 116 L 1333.5 147 L 1263.5 199 L 1225.5 231 L 1192.5 263 L 1191 263 L 1191 264.5 L 1182.5 273 Q 1180.3 272.3 1181 274.5 L 1137 319.5 L 1083 382.5 L 1029 453.5 L 991.5 509 L 992 507.5 L 994 493.5 L 996 488.5 L 998 474.5 L 1000 469.5 L 1004 445.5 L 1006 440.5 L 1010 416.5 L 1016 391.5 L 1018 375 L 1008.5 370 L 1005.5 370 L 988 385.5 L 986.5 388 Q 984.3 387.3 985 389.5 L 979 394.5 L 977.5 397 L 974 399.5 Q 900 472.5 837 556.5 Q 772.5 643 721 742.5 L 702 781.5 L 677 842.5 L 649 916.5 L 624 990.5 L 600 1076.5 L 600 1080.5 L 592 1111.5 L 578.5 1184 L 577 1176.5 L 577 1164.5 L 576 1163.5 L 576 1151.5 L 575 1150.5 L 575 1138.5 L 574 1137.5 L 574 1124.5 L 573 1123.5 L 571 1085 Q 567.2 1084 566 1086.5 L 547 1120.5 L 532 1152.5 L 517 1196.5 L 502 1250.5 L 493 1293.5 L 490 1317.5 L 489 1318.5 L 488 1333.5 L 487 1334.5 L 487 1343.5 L 486 1344.5 L 485 1369.5 L 484 1370.5 L 484 1433.5 L 485 1434.5 L 485 1449.5 L 486 1450.5 L 486 1460.5 L 488 1471.5 L 488 1511.5 L 487 1512.5 L 487 1521.5 L 486 1522.5 L 485 1534.5 L 481 1552.5 L 469 1586.5 L 400 1743.5 L 346 1859.5 L 323 1904.5 L 309 1937.5 L 300 1965.5 L 295 1990.5 L 294 2007.5 L 293 2008.5 L 293 2040.5 L 294 2041.5 L 295 2068.5 L 300 2096.5 L 305 2110.5 L 313.5 2122 L 319 2117.5 L 422 1993.5 L 431 1979.5 L 465 1859.5 L 494 1771.5 L 494 1768.5 L 536 1650.5 L 578 1543.5 L 623 1438.5 L 673 1331.5 Q 728.9 1217.9 790 1109.5 L 857 995.5 L 899 928.5 Q 944.3 857.8 993 790.5 Q 1089.1 656.6 1200.5 538 Q 1202.8 538.8 1202 536.5 L 1247 490.5 L 1247 489 L 1248.5 489 L 1278 460.5 L 1278 459 L 1280 459 Q 1278.9 456.3 1281.5 457 Q 1354.9 384.9 1436.5 321 L 1429.5 329 L 1427 330.5 L 1424.5 334 L 1419 338.5 Q 1419.8 340.8 1417.5 340 L 1415 344 L 1411 346.5 Q 1411.8 348.8 1409.5 348 L 1403.5 355 L 1401 356.5 L 1397 361.5 L 1385.5 373 L 1384 373 L 1384 374.5 L 1352.5 407 L 1351 407 L 1351 409 L 1349 409 L 1349 411 Q 1346.3 409.9 1347 412.5 L 1305 456.5 L 1305 458 Q 1302.3 456.9 1303 459.5 Q 1274.2 487.8 1250 519 Q 1247.3 517.9 1248 520.5 Q 1039.2 755.7 874 1034.5 L 812 1144.5 L 778 1209.5 L 736 1295.5 L 704 1365.5 L 672 1440.5 L 640 1521.5 L 630 1549.5 L 630 1554 L 640.5 1551 L 714.5 1514 L 770.5 1488 L 841.5 1461 L 879.5 1445 L 924.5 1423 L 956.5 1405 Q 1009.1 1374.1 1055.5 1337 Q 1108.4 1294.4 1154 1244.5 Q 1200.9 1193.9 1241 1136.5 L 1285 1070.5 L 1293 1055.5 L 1294 1047 L 1290.5 1047 L 1236.5 1066 L 1180.5 1083 L 1036.5 1132 L 1006 1141 L 1005 1134.5 L 1008.5 1132 L 1025.5 1126 L 1078.5 1111 L 1105.5 1101 L 1108.5 1101 L 1147.5 1085 L 1183.5 1067 Q 1261.2 1024.7 1320 963.5 Q 1383.1 899.1 1432 820.5 L 1481 737.5 L 1535 632.5 L 1541 616 L 1532.5 617 L 1489.5 635 L 1476.5 639 L 1420.5 662 L 1412.5 664 L 1374.5 680 L 1353.5 687 L 1343.5 692 L 1252 727 L 1251 720.5 L 1379.5 648 L 1470.5 601 L 1500.5 584 Q 1553 551.5 1594 507.5 L 1596 504.5 Q 1641.8 456.3 1676 396.5 L 1720 316.5 L 1739 278.5 L 1783 181.5 L 1820 108.5 L 1854 52.5 Q 1870 28.5 1889 7.5 L 1892 1.5 L 1891.5 0 L 2185.5 0 L 2186 0.5 L 2186 2186 L 628 2185.5 L 661.5 2182 L 688.5 2176 L 700.5 2172 Q 725.9 2163.4 741 2144.5 L 749 2129.5 L 752 2114.5 L 752 2102.5 L 743 2080.5 L 700 2004.5 L 719.5 2004 L 720.5 2005 L 730.5 2005 L 750.5 2009 L 855.5 2043 L 911.5 2058 L 916.5 2058 L 941.5 2063 L 948.5 2063 L 949.5 2064 L 987.5 2065 L 988.5 2064 L 997.5 2064 L 998.5 2063 L 1010.5 2062 L 1033.5 2055 Q 1048.8 2047.8 1059 2035.5 Q 1065.5 2028 1069 2017.5 L 1072 2000.5 L 1072 1990.5 L 1071 1989.5 L 1070 1976.5 L 1063 1954.5 Q 1046.5 1927 1033 1896.5 L 1036.5 1896 L 1037.5 1897 L 1072.5 1902 L 1078.5 1904 L 1083.5 1904 L 1094.5 1907 L 1099.5 1907 L 1105.5 1909 L 1110.5 1909 L 1130.5 1914 L 1135.5 1914 L 1161.5 1920 L 1166.5 1920 L 1226.5 1932 L 1231.5 1932 L 1274.5 1940 L 1280.5 1940 L 1287.5 1942 L 1300.5 1943 L 1307.5 1945 L 1313.5 1945 L 1314.5 1946 L 1321.5 1946 L 1322.5 1947 L 1329.5 1947 L 1330.5 1948 L 1337.5 1948 L 1354.5 1951 L 1363.5 1951 L 1364.5 1952 L 1373.5 1952 L 1384.5 1954 L 1395.5 1954 L 1396.5 1955 L 1411.5 1955 L 1412.5 1956 L 1429.5 1956 L 1430.5 1957 L 1500.5 1957 L 1501.5 1956 L 1536.5 1955 L 1537.5 1954 L 1547.5 1954 L 1548.5 1953 L 1573.5 1951 L 1619.5 1943 L 1647.5 1936 Q 1709.1 1918.8 1756 1888 Q 1757.4 1884 1750.5 1886 L 1723.5 1897 L 1688.5 1909 L 1660.5 1917 L 1617.5 1927 L 1612.5 1927 L 1587.5 1932 L 1581.5 1932 L 1580.5 1933 L 1574.5 1933 L 1573.5 1934 L 1546.5 1936 L 1545.5 1937 L 1504.5 1938 L 1503.5 1939 L 1473.5 1939 L 1472.5 1938 L 1443.5 1938 L 1442.5 1937 L 1412.5 1936 L 1411.5 1935 L 1390.5 1934 L 1389.5 1933 L 1381.5 1933 L 1380.5 1932 L 1349.5 1929 L 1318.5 1923 L 1294.5 1920 L 1132.5 1887 L 1099.5 1882 L 1071.5 1876 L 1046.5 1873 L 1045.5 1872 L 1021.5 1872 L 1006.5 1876 L 993.5 1882 L 982 1892.5 L 981 1900.5 Q 983.5 1902 982 1907.5 L 991 1933.5 L 991 1936.5 L 1000 1953.5 L 1003 1962.5 L 1007 1981.5 L 1008 1997.5 L 1004 2006 L 1000.5 2008 L 988.5 2009 L 987.5 2010 L 951.5 2013 L 950.5 2012 L 940.5 2012 L 929.5 2010 L 887.5 1997 L 805.5 1980 L 799.5 1980 L 777.5 1976 L 756.5 1975 L 755.5 1974 L 739.5 1974 L 738.5 1973 L 692.5 1973 L 691.5 1974 L 679.5 1975 L 670.5 1978 Q 661.1 1981.6 656 1989.5 L 652 1999.5 L 652 2020.5 L 658 2034.5 L 692 2082.5 L 701 2102.5 L 703 2110.5 L 703 2120.5 L 701 2130.5 L 694 2143 L 662.5 2158 L 642.5 2164 L 622.5 2165 L 621.5 2166 L 603.5 2166 L 602.5 2167 L 551.5 2167 L 550.5 2166 L 530.5 2165 L 529.5 2164 L 521.5 2164 L 520.5 2163 L 499.5 2161 L 447.5 2152 L 430 2151 Q 428.9 2153.7 431.5 2153 L 462.5 2166 L 492.5 2175 L 533.5 2183 L 562 2185.5 L 0 2186 L 0 0 Z " />
        <path fill="rgb(0,0,0)" stroke="rgb(0,0,0)" stroke-width="1" opacity="0" d="M 1441.5 317 L 1439.5 320 L 1441.5 317 Z " />
        <path fill="rgb(0,119,215)" stroke="rgb(0,119,215)" stroke-width="1" opacity="0.9921568627450981" d="M 1785.5 0 L 1890.5 0 L 1892 1.5 L 1889 7.5 Q 1869.9 28.4 1854 52.5 L 1820 108.5 L 1783 181.5 L 1739 278.5 Q 1709.2 339.2 1676 396.5 L 1641 450.5 L 1596 506 Q 1593.3 504.9 1594 507.5 Q 1553 551.5 1500.5 584 L 1470.5 601 L 1379.5 648 L 1251 720.5 L 1252 727 L 1343.5 692 L 1353.5 687 L 1374.5 680 L 1412.5 664 L 1420.5 662 L 1476.5 639 L 1489.5 635 L 1532.5 617 L 1541 616 L 1535 632.5 L 1481 737.5 Q 1453.6 787.6 1423 834.5 Q 1394.3 878.8 1361 918.5 L 1311.5 972 Q 1250.8 1032.8 1170.5 1074 L 1138.5 1089 L 1108.5 1101 L 1105.5 1101 L 1078.5 1111 L 1025.5 1126 L 1008.5 1132 L 1005 1134.5 L 1006 1141 L 1036.5 1132 L 1180.5 1083 L 1236.5 1066 L 1290.5 1047 L 1294 1047 L 1293 1055.5 L 1277 1083.5 Q 1245.2 1132.7 1210 1178.5 Q 1158.6 1244.6 1097.5 1301 Q 1025.8 1366.8 937.5 1416 L 879.5 1445 L 752.5 1496 L 676.5 1534 L 640.5 1551 L 630 1554 L 630 1549.5 L 640 1521.5 L 672 1440.5 L 704 1365.5 L 736 1295.5 L 778 1209.5 L 812 1144.5 L 874 1034.5 L 949 913.5 L 1040 780.5 L 1128 663.5 L 1183 595.5 L 1248 520.5 L 1248 519 Q 1250.7 520.1 1250 517.5 L 1303 459.5 L 1303 458 Q 1305.7 459.1 1305 456.5 L 1337 423.5 L 1347 411 L 1349 411 L 1349 409 L 1351 409 Q 1349.9 406.3 1352.5 407 L 1384 374.5 L 1384 373 L 1385.5 373 L 1397 361.5 L 1401 356.5 L 1408 350.5 L 1409.5 348 Q 1411.8 348.8 1411 346.5 L 1415 344 L 1417.5 340 Q 1419.8 340.8 1419 338.5 L 1427 331.5 L 1428.5 329 L 1435 323.5 L 1433.5 323 L 1353.5 390 L 1281.5 457 L 1280 457 L 1280 459 Q 1277.3 457.9 1278 460.5 L 1248.5 489 L 1247 489 L 1247 490.5 L 1210 527.5 L 1202 538 L 1193 545.5 Q 1086 661 993 790.5 Q 944.3 857.8 899 928.5 L 857 995.5 L 790 1109.5 Q 728.9 1217.9 673 1331.5 L 623 1438.5 L 578 1543.5 L 536 1650.5 L 494 1768.5 L 494 1771.5 L 465 1859.5 L 431 1979.5 L 422 1993.5 L 314.5 2122 L 310 2118.5 L 303 2105.5 L 296 2076.5 L 295 2059.5 L 294 2058.5 L 294 2041.5 L 293 2040.5 L 293 2008.5 L 294 2007.5 L 295 1990.5 L 300 1965.5 L 315 1922.5 L 346 1859.5 L 400 1743.5 L 475 1571.5 L 482 1548.5 L 487 1521.5 L 487 1512.5 L 488 1511.5 L 488 1471.5 L 487 1470.5 L 486 1450.5 L 485 1449.5 L 485 1434.5 L 484 1433.5 L 484 1370.5 L 485 1369.5 L 485 1355.5 L 486 1354.5 L 487 1334.5 L 488 1333.5 L 488 1326.5 L 489 1325.5 L 489 1318.5 L 490 1317.5 L 493 1293.5 L 502 1250.5 L 511 1216.5 L 534 1147.5 Q 548.8 1114.3 567.5 1085 L 571 1085.5 L 571 1097.5 L 572 1098.5 L 574 1137.5 L 575 1138.5 L 575 1150.5 L 576 1151.5 L 576 1163.5 L 577 1164.5 L 577 1176.5 L 578.5 1184 L 583 1163.5 L 585 1146.5 L 600 1076.5 L 624 990.5 L 649 916.5 L 677 842.5 L 702 781.5 L 721 742.5 Q 772.5 643 837 556.5 Q 901 471 976.5 397 L 979 395.5 L 980.5 393 L 985 389.5 Q 984.3 387.3 986.5 388 L 989.5 384 L 1002.5 372 Q 1003.9 369.4 1008.5 370 L 1018 375 L 1016 391.5 L 1010 416.5 L 1006 440.5 L 1004 445.5 L 1000 469.5 L 998 474.5 L 996 488.5 L 994 493.5 L 992 507.5 L 993 507.5 L 1029 453.5 L 1083 382.5 L 1137 319.5 L 1181 274.5 L 1181 273 L 1182.5 273 L 1191 264.5 Q 1190.3 262.3 1192.5 263 Q 1220.6 233.6 1252.5 208 Q 1291.2 175.7 1333.5 147 L 1383.5 116 L 1454.5 80 L 1484.5 67 L 1534.5 48 L 1537.5 48 L 1580.5 33 L 1618.5 23 L 1662.5 14 L 1692.5 10 L 1699.5 8 L 1705.5 8 L 1706.5 7 L 1742.5 4 L 1743.5 3 L 1753.5 3 L 1754.5 2 L 1784.5 1 L 1785.5 0 Z " />
        <path fill="rgb(0,119,215)" stroke="rgb(0,119,215)" stroke-width="1" opacity="0.9921568627450981" d="M 1021.5 1872 L 1045.5 1872 L 1046.5 1873 L 1071.5 1876 L 1099.5 1882 L 1132.5 1887 L 1294.5 1920 L 1318.5 1923 L 1349.5 1929 L 1356.5 1929 L 1357.5 1930 L 1364.5 1930 L 1381.5 1933 L 1389.5 1933 L 1390.5 1934 L 1425.5 1936 L 1426.5 1937 L 1472.5 1938 L 1473.5 1939 L 1503.5 1939 L 1504.5 1938 L 1529.5 1938 L 1530.5 1937 L 1545.5 1937 L 1546.5 1936 L 1565.5 1935 L 1566.5 1934 L 1573.5 1934 L 1574.5 1933 L 1594.5 1931 L 1600.5 1929 L 1622.5 1926 L 1688.5 1909 L 1723.5 1897 L 1744.5 1888 Q 1749.1 1885.3 1756 1886 Q 1757.1 1888.7 1754.5 1888 L 1732.5 1902 L 1694.5 1920 L 1661.5 1932 L 1619.5 1943 L 1580.5 1950 L 1558.5 1952 L 1557.5 1953 L 1548.5 1953 L 1547.5 1954 L 1537.5 1954 L 1536.5 1955 L 1501.5 1956 L 1500.5 1957 L 1430.5 1957 L 1429.5 1956 L 1396.5 1955 L 1395.5 1954 L 1384.5 1954 L 1383.5 1953 L 1354.5 1951 L 1353.5 1950 L 1346.5 1950 L 1345.5 1949 L 1338.5 1949 L 1337.5 1948 L 1330.5 1948 L 1329.5 1947 L 1322.5 1947 L 1321.5 1946 L 1314.5 1946 L 1300.5 1943 L 1287.5 1942 L 1280.5 1940 L 1274.5 1940 L 1273.5 1939 L 1226.5 1932 L 1187.5 1924 L 1182.5 1924 L 1072.5 1902 L 1033.5 1896 L 1034 1897.5 L 1065 1959.5 L 1070 1976.5 L 1071 1989.5 L 1072 1990.5 L 1072 2000.5 L 1067 2022.5 Q 1061 2035.5 1050.5 2044 Q 1038 2055 1019.5 2060 L 1005.5 2063 L 988.5 2064 L 987.5 2065 L 962.5 2065 L 961.5 2064 L 949.5 2064 L 948.5 2063 L 941.5 2063 L 940.5 2062 L 922.5 2060 L 883.5 2051 L 746.5 2008 L 730.5 2005 L 720.5 2005 L 719.5 2004 L 700.5 2004 L 702 2006.5 L 748 2090.5 L 752 2102.5 L 752 2114.5 L 749 2129.5 L 745 2138.5 Q 738.5 2149.5 728.5 2157 L 718.5 2164 L 700.5 2172 L 688.5 2176 L 661.5 2182 L 639.5 2184 L 638.5 2185 L 628.5 2185 L 627.5 2186 L 562.5 2186 L 561.5 2185 L 550.5 2185 L 541.5 2183 L 533.5 2183 L 488.5 2174 L 462.5 2166 L 430 2153 L 430.5 2151 L 439.5 2151 L 440.5 2152 L 454.5 2153 L 473.5 2157 L 479.5 2157 L 513.5 2163 L 529.5 2164 L 530.5 2165 L 540.5 2165 L 551.5 2167 L 602.5 2167 L 603.5 2166 L 635.5 2165 L 654.5 2161 L 694 2143 L 702 2127.5 L 703 2110.5 Q 699.6 2094.4 692 2082.5 L 664 2043.5 L 654 2026.5 L 652 2020.5 L 652 1999.5 Q 654.9 1986.9 664.5 1981 L 675.5 1976 L 692.5 1973 L 738.5 1973 L 739.5 1974 L 755.5 1974 L 756.5 1975 L 777.5 1976 L 778.5 1977 L 811.5 1981 L 887.5 1997 L 929.5 2010 L 940.5 2012 L 959.5 2013 L 960.5 2012 L 971.5 2012 L 972.5 2011 L 994.5 2009 Q 995.8 2006.8 1000.5 2008 L 1004 2006 L 1008 1997.5 L 1008 1988.5 L 1003 1962.5 L 1000 1953.5 L 991 1936.5 L 991 1933.5 L 984 1914.5 L 982 1907.5 L 981 1894.5 L 990.5 1884 Q 1003.4 1875.4 1021.5 1872 Z " />
    </g>
</svg>