<svg xmlns="http://www.w3.org/2000/svg" version="1.1" width="512" height="512"><path d="M0 0 C1.87388241 -0.02183706 3.74765633 -0.05623155 5.62109375 -0.10253906 C26.6841501 -0.61361054 26.6841501 -0.61361054 34.72387695 6.4050293 C39.39202906 12.14681658 42.16835599 17.84033805 41.72387695 25.4050293 C40.44295792 30.82781286 38.63988353 36.03040135 36.78637695 41.2800293 C36.27558137 42.76665731 35.76557643 44.25355722 35.25634766 45.74072266 C32.01929128 55.10979051 28.4763483 64.30308372 24.47387695 73.3737793 C22.79257341 77.18570026 21.32985664 81.05159851 19.91137695 84.9675293 C15.64720687 96.6311125 10.61543379 107.99484022 5.72387695 119.4050293 C5.29574707 120.40453613 4.86761719 121.40404297 4.42651367 122.43383789 C4.01804199 123.38726074 3.60957031 124.34068359 3.1887207 125.32299805 C2.79571777 126.24032715 2.40271484 127.15765625 1.99780273 128.1027832 C1.24156061 129.86499126 0.48347099 131.6264078 -0.27661133 133.38696289 C-2.25197669 137.96919969 -4.1372536 142.57333269 -5.96362305 147.2175293 C-9.02491888 154.55210156 -13.68509804 162.11746642 -21.27612305 165.4050293 C-28.26190353 166.4973289 -35.25753156 166.73336305 -42.31518555 167.01831055 C-44.85949872 167.13260631 -47.40376857 167.24786977 -49.94799805 167.36401367 C-53.93503443 167.54392254 -57.92188657 167.72014795 -61.90991211 167.87646484 C-65.77513083 168.03176806 -69.63868267 168.21050288 -73.50268555 168.39331055 C-74.69342682 168.43514969 -75.88416809 168.47698883 -77.11099243 168.52009583 C-83.3486007 168.83637947 -87.57318842 169.12022222 -92.27612305 173.4050293 C-93.90935227 175.77412038 -93.90935227 175.77412038 -94.27612305 178.4050293 C-92.01150074 185.77510188 -85.35419346 191.9074261 -80.32568359 197.56982422 C-76.48648381 201.92003814 -72.90719465 206.37702146 -69.52612305 211.0925293 C-69.10814453 211.66841797 -68.69016602 212.24430664 -68.25952148 212.83764648 C-66.2875437 215.63975523 -64.77049816 217.99314474 -64.27612305 221.4050293 C-64.05375977 222.56325195 -64.05375977 222.56325195 -63.8269043 223.74487305 C-63.18181401 230.77741467 -65.17783179 234.83784216 -69.5871582 240.27026367 C-75.876617 247.56026928 -83.08184065 254.02790254 -90.27612305 260.4050293 C-90.92790527 260.9904248 -91.5796875 261.57582031 -92.2512207 262.17895508 C-92.87432129 262.72922363 -93.49742187 263.27949219 -94.1394043 263.84643555 C-94.69539307 264.33958252 -95.25138184 264.83272949 -95.82421875 265.34082031 C-97.27612305 266.4050293 -97.27612305 266.4050293 -99.27612305 266.4050293 C-99.27612305 267.0650293 -99.27612305 267.7250293 -99.27612305 268.4050293 C-101.13774735 269.98939041 -103.00157943 271.45387101 -104.96362305 272.9050293 C-106.173517 273.81484184 -107.38314568 274.72500724 -108.5925293 275.63549805 C-109.21144043 276.09875488 -109.83035156 276.56201172 -110.46801758 277.03930664 C-113.14290931 279.05974201 -115.76611306 281.14546867 -118.40112305 283.2175293 C-126.74349961 289.67975255 -135.50679228 295.54322526 -144.27612305 301.4050293 C-145.00911621 301.89680664 -145.74210938 302.38858398 -146.49731445 302.89526367 C-156.41194963 309.52159382 -166.5571856 315.55857425 -177.05737305 321.2097168 C-179.22938756 322.37985138 -181.39360581 323.56348033 -183.55737305 324.7487793 C-192.92136362 329.83625916 -202.47665233 334.27502346 -212.2512207 338.51147461 C-215.10134833 339.76918706 -217.90427871 341.12160768 -220.71362305 342.4675293 C-226.05216316 344.93355544 -231.46950453 347.12705548 -236.96362305 349.2175293 C-238.12172485 349.67107788 -238.12172485 349.67107788 -239.30322266 350.13378906 C-244.85623093 352.19646989 -250.32446791 353.37756811 -256.27612305 353.4050293 C-257.27612305 352.4050293 -257.27612305 352.4050293 -257.55737305 349.0144043 C-257.47927403 343.52306716 -255.65673928 338.76097793 -253.77612305 333.6550293 C-253.41301025 332.64569336 -253.04989746 331.63635742 -252.67578125 330.59643555 C-251.56100561 327.52544418 -250.4234813 324.46398181 -249.27612305 321.4050293 C-248.78764893 320.09501953 -248.78764893 320.09501953 -248.28930664 318.75854492 C-243.08076546 304.92327276 -236.79784277 291.6619311 -230.27612305 278.4050293 C-229.33204923 276.46495598 -228.38803843 274.524852 -227.4440918 272.5847168 C-223.27596561 264.07473192 -219.0401979 255.7101836 -214.04125977 247.65478516 C-209.87919007 240.89482228 -206.09453733 233.92482999 -202.27612305 226.9675293 C-201.92654541 226.33092377 -201.57696777 225.69431824 -201.21679688 225.03842163 C-199.84032429 222.53164593 -198.46396263 220.02480971 -197.08834839 217.51756287 C-194.45080123 212.71351469 -191.78319074 207.92728619 -189.08862305 203.1550293 C-188.73920654 202.5353125 -188.38979004 201.9155957 -188.02978516 201.27709961 C-186.58973729 198.72508002 -185.14564555 196.17540181 -183.69799805 193.62768555 C-181.62670408 189.95530515 -179.69148425 186.39377451 -178.27612305 182.4050293 C-182.83619707 185.25183958 -186.53587063 188.38182153 -190.3034668 192.2019043 C-190.85547256 192.75436829 -191.40747833 193.30683228 -191.97621155 193.8760376 C-193.13740124 195.04023223 -194.29617599 196.20684011 -195.45263672 197.37573242 C-197.1999781 199.14124247 -198.95510016 200.89870566 -200.71166992 202.6550293 C-206.44437036 208.40611945 -212.00542409 214.22309899 -217.27612305 220.4050293 C-218.64816895 221.88693653 -220.02275353 223.36650202 -221.40112305 224.8425293 C-227.28363867 231.35746554 -232.49660454 238.38193104 -237.76293945 245.39526367 C-239.0847395 247.15083935 -240.41692796 248.89745396 -241.7565918 250.6394043 C-250.74552456 262.41251977 -258.65394316 274.79657036 -266.16723633 287.54760742 C-267.26376307 289.38432593 -268.38761102 291.20100399 -269.5222168 293.0144043 C-274.71722231 301.36894532 -279.05397167 309.94727955 -283.16674805 318.8815918 C-284.88105386 322.60105064 -286.73585034 326.22175184 -288.65112305 329.8425293 C-299.67956793 351.69327991 -307.49588532 375.6443158 -313.23706055 399.3659668 C-315.71448388 409.42263647 -318.19909587 418.47004999 -327.27612305 424.4050293 C-333.1867659 427.2653782 -338.91275868 428.43949748 -345.27612305 426.4050293 C-350.94502193 423.25904577 -356.94102641 418.30761946 -359.08862305 412.0300293 C-359.15049805 411.1637793 -359.21237305 410.2975293 -359.27612305 409.4050293 C-359.35862305 408.2706543 -359.44112305 407.1362793 -359.52612305 405.9675293 C-359.23274563 390.09581082 -353.38720773 365.41551304 -345.24035645 351.65563965 C-343.98258972 348.71989524 -344.00989652 346.3456133 -343.98901367 343.15307617 C-343.97559937 341.88234253 -343.96218506 340.61160889 -343.94836426 339.30236816 C-343.94451973 338.28377968 -343.94451973 338.28377968 -343.94059753 337.24461365 C-343.93222543 335.08571258 -343.91162477 332.92721821 -343.88806152 330.76843262 C-343.83986881 326.1473605 -343.80716466 321.52624385 -343.77612305 316.9050293 C-343.40300571 262.47345256 -343.40300571 262.47345256 -339.02612305 238.0925293 C-338.81141357 236.85672119 -338.5967041 235.62091309 -338.37548828 234.34765625 C-330.7546908 192.00048744 -313.65521089 150.88164326 -286.27612305 117.4050293 C-285.52073242 116.4769043 -284.7653418 115.5487793 -283.98706055 114.5925293 C-282.45803802 112.71985024 -280.92581801 110.84977415 -279.3894043 108.9831543 C-278.01158856 107.30227004 -276.65362611 105.60485359 -275.3190918 103.8894043 C-273.1140413 101.20792798 -270.75786075 98.83366277 -268.27612305 96.4050293 C-267.03885128 95.15921519 -265.80331657 93.91167462 -264.5690918 92.6628418 C-263.20065485 91.28518535 -261.83216408 89.90758236 -260.46362305 88.5300293 C-259.79008789 87.84811523 -259.11655273 87.16620117 -258.42260742 86.46362305 C-245.38884277 73.36749588 -230.9951476 62.07673485 -215.27612305 52.4050293 C-214.56327148 51.93709961 -213.85041992 51.46916992 -213.1159668 50.98706055 C-208.0080062 47.63597812 -202.57389045 44.96855989 -197.0925293 42.2878418 C-194.55907545 41.0480527 -192.04990397 39.77239123 -189.5534668 38.4597168 C-161.42932687 23.77334956 -130.28911177 15.3583523 -99.27612305 9.4050293 C-98.33236816 9.21602051 -97.38861328 9.02701172 -96.41625977 8.83227539 C-83.55577851 6.26389135 -70.61568203 4.64955099 -57.58862305 3.2175293 C-56.82728058 3.13267273 -56.06593811 3.04781616 -55.28152466 2.96038818 C-36.90443388 0.93488746 -18.48344746 0.16126388 0 0 Z " fill="#000000" transform="translate(414.276123046875,41.594970703125)"></path></svg>