<?xml version="1.0" encoding="UTF-8"?>
<svg version="1.1" xmlns="http://www.w3.org/2000/svg" width="2186" height="2186">
<path d="M0 0 C3.44513421 0.0057308 6.89019166 0.00229154 10.33532333 -0.0034523 C24.9971539 -0.02403832 39.60967478 0.10609357 54.24121094 1.13037109 C52.93468477 3.94973732 51.49091907 6.21133009 49.47558594 8.57177734 C48.92322266 9.22662109 48.37085938 9.88146484 47.80175781 10.55615234 C47.20427734 11.26126953 46.60679688 11.96638672 45.99121094 12.69287109 C17.41962056 47.03738794 -5.99096091 85.68123061 -26.75878906 125.13037109 C-27.6458252 126.81187256 -27.6458252 126.81187256 -28.55078125 128.52734375 C-41.52266773 153.18484602 -53.61347526 178.21968177 -65.07861328 203.6105957 C-70.04758421 214.60985944 -75.13790908 225.54832934 -80.27856445 236.46826172 C-80.90220835 237.79311863 -81.5258251 239.11798833 -82.14941406 240.44287109 C-82.45471542 241.09139038 -82.76001678 241.73990967 -83.0745697 242.40808105 C-85.59848632 247.77549142 -88.08520631 253.15967886 -90.56713867 258.54663086 C-101.31390171 281.8438446 -112.16463123 305.14755182 -124.67285156 327.56005859 C-128.09527018 333.694242 -131.37255018 339.90408481 -134.65936279 346.1114502 C-141.25553713 358.55678377 -147.9909859 370.90904469 -155.0234375 383.11474609 C-156.56810258 385.7990037 -158.10254582 388.48889143 -159.63537598 391.17991638 C-177.1552767 421.87560924 -196.77400083 451.16639542 -219.33496094 478.40234375 C-220.61942783 479.9612355 -221.88557843 481.53517548 -223.14941406 483.11083984 C-228.52744019 489.81402708 -234.25248335 496.12001928 -240.12890625 502.3828125 C-241.80203738 504.17674189 -243.45758498 505.98564351 -245.11035156 507.79833984 C-252.75429538 516.14685965 -260.7235648 524.00777522 -269.10009766 531.62011719 C-270.5535744 532.94352124 -271.99508845 534.28003928 -273.43457031 535.61865234 C-279.6698704 541.36410889 -286.27780881 546.5588981 -292.97949219 551.74072266 C-294.66636702 553.05818857 -296.33269871 554.39703322 -297.99316406 555.74755859 C-323.6123859 576.48582361 -352.34118128 593.07194453 -381.80200195 607.66918945 C-390.3731553 611.91766599 -398.83845563 616.34282568 -407.28808594 620.82666016 C-410.8992301 622.73214532 -414.52511039 624.60894122 -418.1496582 626.48876953 C-430.44514346 632.87128431 -442.62383557 639.44847861 -454.75878906 646.13037109 C-455.87560059 646.74428711 -456.99241211 647.35820313 -458.14306641 647.99072266 C-474.03502502 656.72660333 -489.8855911 665.53380927 -505.69824219 674.41259766 C-510.88284767 677.32252779 -516.07099621 680.22612844 -521.25878906 683.13037109 C-527.48622592 686.61709463 -533.71327843 690.10449555 -539.93847656 693.59521484 C-542.00357544 694.75277637 -544.0686796 695.91032846 -546.13378906 697.06787109 C-547.14320557 697.6340918 -548.15262207 698.2003125 -549.19262695 698.78369141 C-554.87238523 701.96625661 -560.56192317 705.13019679 -566.26269531 708.27490234 C-567.51548964 708.96699141 -568.76825682 709.65912964 -570.02099609 710.35131836 C-572.4300851 711.68238514 -574.84156237 713.00898524 -577.25439453 714.33325195 C-578.33736816 714.93145752 -579.4203418 715.52966309 -580.53613281 716.14599609 C-581.49769287 716.67483398 -582.45925293 717.20367188 -583.44995117 717.74853516 C-585.84617341 719.05535058 -585.84617341 719.05535058 -587.75878906 721.13037109 C-587.42878906 721.72849609 -587.09878906 722.32662109 -586.75878906 722.94287109 C-585.75878906 725.13037109 -585.75878906 725.13037109 -585.75878906 728.13037109 C-584.83827759 727.74836548 -584.83827759 727.74836548 -583.89916992 727.35864258 C-569.48881646 721.3954203 -555.01103418 715.64204414 -540.44628906 710.06787109 C-525.90230814 704.50109241 -511.38273183 698.87598437 -496.88378906 693.19287109 C-495.91795898 692.81438019 -494.95212891 692.43588928 -493.95703125 692.04592896 C-490.06720698 690.52154165 -486.17743441 688.99702267 -482.28781128 687.47212219 C-472.51122798 683.63980965 -462.72930258 679.82123332 -452.94628906 676.00537109 C-452.10704895 675.67800964 -451.26780884 675.35064819 -450.40313721 675.0133667 C-443.47193566 672.30973014 -443.47193566 672.30973014 -440.28167725 671.06542969 C-434.4569019 668.79339532 -428.63305158 666.51900125 -422.80957031 664.24365234 C-419.45937262 662.93489797 -416.109104 661.62632531 -412.75878906 660.31787109 C-411.92493683 659.99219147 -411.09108459 659.66651184 -410.23196411 659.33096313 C-400.09292806 655.37180428 -389.9488486 651.42595487 -379.79785156 647.49755859 C-378.78032806 647.10369965 -377.76280457 646.7098407 -376.71444702 646.30404663 C-368.3627502 643.07142597 -368.3627502 643.07142597 -364.29754639 641.49945068 C-352.91145519 637.09550949 -341.53881687 632.66109375 -330.19628906 628.14599609 C-329.19246185 627.7468248 -328.18863464 627.3476535 -327.15438843 626.93638611 C-322.37329775 625.03432087 -317.59469612 623.12636311 -312.81982422 621.20874023 C-311.12506504 620.53271452 -309.43024442 619.85684283 -307.73535156 619.18115234 C-306.96594238 618.86966248 -306.1965332 618.55817261 -305.40380859 618.23724365 C-302.37606234 617.03474985 -300.04818347 616.13037109 -296.75878906 616.13037109 C-298.1601263 620.68176381 -299.99193445 624.87791207 -302.13183594 629.11938477 C-302.4671936 629.79199844 -302.80255127 630.46461212 -303.14807129 631.15760803 C-304.25399958 633.37315651 -305.36565087 635.58577717 -306.47753906 637.79833984 C-307.25814593 639.3583588 -308.03845477 640.91852692 -308.81848145 642.47883606 C-310.45691757 645.75414516 -312.09802583 649.02809629 -313.74121094 652.30102539 C-315.81840421 656.4386117 -317.89043877 660.57875315 -319.96069813 664.71981239 C-335.86777532 696.53297198 -335.86777532 696.53297198 -343.76287842 711.27017212 C-344.74987443 713.11372001 -345.73025172 714.9606333 -346.70849609 716.80883789 C-354.61482944 731.72993047 -362.68368428 746.54615671 -371.08007812 761.19824219 C-372.85191208 764.29302488 -374.61386329 767.39332599 -376.37597656 770.49365234 C-384.27452793 784.34063568 -392.49559624 797.94302223 -401.03466797 811.40380859 C-402.62564223 813.9198098 -404.20147282 816.44439902 -405.77050781 818.97412109 C-416.67494519 836.50631066 -428.2742473 853.65035413 -440.4453125 870.32958984 C-441.40693704 871.64798067 -442.36549102 872.96861264 -443.32226562 874.29052734 C-451.03705912 884.94450153 -459.00363836 895.31461849 -467.38232422 905.45410156 C-469.22489968 907.69800421 -471.02340588 909.97558107 -472.82128906 912.25537109 C-480.05546766 921.32098731 -487.70161645 930.07386732 -495.51074219 938.64672852 C-496.86833424 940.14659645 -498.21715354 941.65456451 -499.54882812 943.17749023 C-506.53673192 951.12404596 -514.03455154 958.55736177 -521.5246582 966.02661133 C-523.82326116 968.31983858 -526.11644936 970.61838349 -528.40917969 972.91748047 C-529.89128094 974.3989211 -531.37369226 975.88005159 -532.85644531 977.36083984 C-533.53063004 978.0370488 -534.20481476 978.71325775 -534.89942932 979.40995789 C-539.3593721 983.84830722 -543.98771895 988.03019586 -548.75878906 992.13037109 C-549.95014235 993.17582436 -551.1404311 994.22249348 -552.32910156 995.27099609 C-560.59397887 1002.51701055 -569.02704368 1009.45605662 -577.75878906 1016.13037109 C-578.85852051 1016.97704346 -578.85852051 1016.97704346 -579.98046875 1017.84082031 C-592.54982914 1027.50017389 -605.42818013 1036.55290942 -618.75878906 1045.13037109 C-619.61053711 1045.67935059 -620.46228516 1046.22833008 -621.33984375 1046.79394531 C-635.10516126 1055.61390627 -649.26948637 1063.56610278 -663.75878906 1071.13037109 C-665.30759766 1071.94272217 -665.30759766 1071.94272217 -666.88769531 1072.77148438 C-707.02199142 1093.70273825 -749.69315609 1107.86986428 -793.17773438 1120.0234375 C-806.5612872 1123.82804385 -819.65811546 1128.45773982 -832.75878906 1133.13037109 C-832.75878906 1136.40312136 -832.45953751 1138.97700309 -831.75878906 1142.13037109 C-815.46651772 1136.75720331 -799.17493165 1131.38196022 -782.88378906 1126.00537109 C-781.67496441 1125.60643772 -780.46613976 1125.20750435 -779.22068405 1124.79648209 C-749.07304138 1114.84689569 -718.93133162 1104.88071579 -688.82128906 1094.81787109 C-671.31596691 1088.9676858 -653.79923478 1083.15916907 -636.23742676 1077.48049927 C-616.80828279 1071.19432403 -597.44195246 1064.71893367 -578.07128906 1058.25537109 C-576.8284528 1057.84066433 -576.8284528 1057.84066433 -575.56050873 1057.41757965 C-565.29241295 1053.99107121 -555.02519822 1050.56192955 -544.75878906 1047.13037109 C-543.08597915 1052.93911406 -546.11560409 1057.05663999 -548.85302734 1062.17724609 C-549.97875393 1064.18120976 -551.14033039 1066.15847341 -552.32128906 1068.13037109 C-552.75763672 1068.86400879 -553.19398438 1069.59764648 -553.64355469 1070.35351562 C-558.47500799 1078.41570179 -563.57556896 1086.29113932 -568.75878906 1094.13037109 C-569.42475098 1095.1395459 -570.09071289 1096.1487207 -570.77685547 1097.18847656 C-588.84460964 1124.53393988 -607.69493751 1151.20699239 -627.75878906 1177.13037109 C-628.22349609 1177.73155762 -628.68820312 1178.33274414 -629.16699219 1178.95214844 C-642.94893713 1196.74473851 -657.327964 1214.11454282 -672.54394531 1230.70068359 C-674.39885724 1232.73552525 -676.21307705 1234.79358356 -678.00878906 1236.88037109 C-688.99569066 1249.47187447 -700.78495643 1261.31688352 -712.61083984 1273.11279297 C-715.15482234 1275.6513596 -717.69334035 1278.1953044 -720.23144531 1280.73974609 C-721.87305146 1282.38069222 -723.51496737 1284.02132853 -725.15722656 1285.66162109 C-726.27621841 1286.78364929 -726.27621841 1286.78364929 -727.41781616 1287.92834473 C-731.49259583 1291.98516017 -735.6544272 1295.87880015 -740.01631165 1299.62600708 C-742.59705634 1301.85408729 -745.07644577 1304.18150308 -747.57128906 1306.50537109 C-752.19312737 1310.77556369 -756.95302854 1314.81262482 -761.85644531 1318.75927734 C-765.14843072 1321.44869207 -768.35859926 1324.22233924 -771.57128906 1327.00537109 C-777.80395561 1332.37748501 -784.18036974 1337.52350443 -790.69921875 1342.54345703 C-792.17339312 1343.67931922 -793.64512419 1344.81835522 -795.11523438 1345.95947266 C-806.51608218 1354.80427418 -818.06297497 1363.31280949 -830.06347656 1371.32568359 C-833.07463732 1373.3418521 -836.07279221 1375.37666999 -839.07128906 1377.41162109 C-853.99758306 1387.51263626 -869.17059704 1397.07216056 -884.75878906 1406.13037109 C-885.70109375 1406.67999512 -886.64339844 1407.22961914 -887.61425781 1407.79589844 C-933.28528498 1434.3338227 -981.09420105 1455.11447494 -1030.59613037 1473.33947754 C-1046.22621238 1479.10148653 -1061.57889421 1485.25340492 -1076.75878906 1492.13037109 C-1077.88671875 1492.64132324 -1079.01464844 1493.15227539 -1080.17675781 1493.67871094 C-1104.03645866 1504.54315758 -1127.61105051 1516.00731586 -1151.03671265 1527.77368164 C-1161.9915786 1533.2747437 -1173.0113017 1538.62660546 -1184.09375 1543.86621094 C-1186.84329355 1545.17045576 -1189.58669815 1546.48696672 -1192.32910156 1547.80615234 C-1194.07646979 1548.64344954 -1195.82386438 1549.48069173 -1197.57128906 1550.31787109 C-1198.37268311 1550.70507324 -1199.17407715 1551.09227539 -1199.99975586 1551.49121094 C-1205.53224009 1554.13037109 -1205.53224009 1554.13037109 -1207.75878906 1554.13037109 C-1207.05645525 1549.95002479 -1205.76474602 1546.08532492 -1204.30175781 1542.12255859 C-1204.04724854 1541.42576492 -1203.79273926 1540.72897125 -1203.53051758 1540.01106262 C-1202.67414728 1537.67394379 -1201.81093615 1535.33943981 -1200.94628906 1533.00537109 C-1200.64389313 1532.18670563 -1200.34149719 1531.36804016 -1200.02993774 1530.52456665 C-1186.16532685 1493.04550839 -1171.31282541 1455.93825552 -1155.75878906 1419.13037109 C-1155.44528503 1418.38775024 -1155.13178101 1417.64512939 -1154.80877686 1416.88000488 C-1138.8493592 1379.09550172 -1122.21277683 1341.60407131 -1104.84057617 1304.44824219 C-1103.8025541 1302.22414344 -1102.76905799 1299.99800873 -1101.73730469 1297.77099609 C-1090.47501403 1273.47979113 -1078.55616269 1249.51522901 -1066.59718323 1225.56173325 C-1065.33700958 1223.03686847 -1064.07811524 1220.51136929 -1062.81945801 1217.98574829 C-1054.14290954 1200.58302164 -1045.37290323 1183.27806025 -1035.93496704 1166.2722168 C-1033.11606238 1161.13893004 -1030.47997904 1155.91036884 -1027.82128906 1150.69287109 C-1022.94699198 1141.21066529 -1017.87663761 1131.87346801 -1012.58105469 1122.62060547 C-1008.71977596 1115.86687794 -1004.99635349 1109.04947544 -1001.32128906 1102.19287109 C-996.46233441 1093.15355002 -991.4025901 1084.25415196 -986.19824219 1075.40966797 C-982.01472157 1068.29906362 -977.90764227 1061.14811377 -973.8336792 1053.9744873 C-966.02290931 1040.2290015 -957.95605691 1026.64903029 -949.75878906 1013.13037109 C-949.05891694 1011.97356992 -948.35921386 1010.81666646 -947.65966797 1009.65966797 C-935.07132025 988.84060107 -922.34344354 968.1132431 -909.30664062 947.57128906 C-907.72261226 945.0733213 -906.14292173 942.57264505 -904.56347656 940.07177734 C-883.63584815 906.99301969 -861.90263237 874.40556018 -839.75878906 842.13037109 C-838.80031446 840.72942607 -837.84197327 839.32838976 -836.88378906 837.92724609 C-826.9350331 823.3965204 -816.85462712 808.95944335 -806.51098633 794.70678711 C-802.90376443 789.73227199 -799.34993116 784.72334911 -795.82128906 779.69287109 C-789.85782966 771.20587905 -783.70797677 762.86202613 -777.53222656 754.52880859 C-775.78905802 752.17130752 -774.05377609 749.80823009 -772.32128906 747.44287109 C-764.79058774 737.16808546 -757.12561523 727.00382442 -749.38769531 716.88427734 C-746.5317505 713.14845223 -743.6980821 709.39765225 -740.88378906 705.63037109 C-731.68470451 693.33027688 -722.20444281 681.24138258 -712.75878906 669.13037109 C-712.02160645 668.18411865 -712.02160645 668.18411865 -711.26953125 667.21875 C-705.46306663 659.77044342 -699.5640644 652.4050587 -693.59228516 645.08862305 C-690.11952148 640.82706205 -686.70067555 636.52872296 -683.32128906 632.19287109 C-677.54129882 624.78894359 -671.56126338 617.55481953 -665.5703125 610.32128906 C-663.75619574 608.12723464 -661.94790698 605.92851569 -660.14160156 603.72802734 C-653.51763544 595.65963603 -646.84623323 587.63686104 -640.08105469 579.68652344 C-638.73628711 578.10388893 -637.3953679 576.51807492 -636.05566406 574.93115234 C-629.82978405 567.55658187 -623.56230206 560.2186474 -617.27490234 552.89648438 C-615.26742912 550.55798819 -613.26174143 548.21796505 -611.25634766 545.87768555 C-610.25829691 544.71318454 -609.25992464 543.54895901 -608.26123047 542.38500977 C-605.74231161 539.44873338 -603.22838335 536.50843418 -600.72363281 533.56005859 C-595.01441725 526.85014518 -589.19712298 520.27063972 -583.21582031 513.80224609 C-580.59101148 510.94792297 -578.03440229 508.04322062 -575.49316406 505.11474609 C-571.9637694 501.07660986 -568.35180654 497.1118229 -564.75878906 493.13037109 C-564.03691406 492.32599609 -563.31503906 491.52162109 -562.57128906 490.69287109 C-558.02547938 485.62754031 -553.44420399 480.59615949 -548.83862305 475.58520508 C-546.01945777 472.51505517 -543.224063 469.42547348 -540.44628906 466.31787109 C-534.92646722 460.16945744 -529.26836825 454.15118575 -523.62011719 448.12109375 C-521.74055242 446.11086669 -519.86611558 444.09597872 -517.99316406 442.07958984 C-517.37787842 441.41789795 -516.76259277 440.75620605 -516.12866211 440.07446289 C-514.96511712 438.82290153 -513.80244887 437.57052421 -512.64086914 436.31713867 C-509.90972529 433.38286882 -507.14259477 430.50558329 -504.28613281 427.69287109 C-501.85995331 425.28847058 -499.5789249 422.81440784 -497.35253906 420.22412109 C-492.87077463 415.03207703 -487.9655269 410.28868786 -483.07519531 405.48583984 C-482.00591797 404.42816406 -482.00591797 404.42816406 -480.91503906 403.34912109 C-480.28404297 402.72972656 -479.65304687 402.11033203 -479.00292969 401.47216797 C-477.22200329 399.6137426 -475.56398546 397.73374239 -473.89916992 395.77514648 C-468.0594341 389.06235113 -461.64972562 382.87782522 -455.35644531 376.59521484 C-453.9505734 375.18866805 -452.54484986 373.78197295 -451.13926697 372.37513733 C-448.20327138 369.43767345 -445.26549037 366.50201028 -442.32641602 363.56762695 C-438.57644283 359.8233505 -434.83097776 356.07460175 -431.08684635 352.32448483 C-428.18802734 349.42203669 -425.28681151 346.52199374 -422.38488579 343.62265205 C-421.00358311 342.24201214 -419.62301091 340.86064097 -418.24321175 339.47849846 C-405.22166005 326.43968347 -405.22166005 326.43968347 -399.26634216 321.41430664 C-396.97413602 319.46210678 -394.87002037 317.33709039 -392.75878906 315.19287109 C-391.99566406 314.42072266 -391.23253906 313.64857422 -390.44628906 312.85302734 C-389.88941406 312.28455078 -389.33253906 311.71607422 -388.75878906 311.13037109 C-401.11103855 320.27103571 -413.05202575 329.93417712 -424.95019531 339.65380859 C-426.55114386 340.9608465 -428.15476882 342.26460465 -429.75878906 343.56787109 C-435.20301542 347.99921813 -440.57988476 352.50300649 -445.92797852 357.04931641 C-449.29767651 359.90929962 -452.69927814 362.7231115 -456.13378906 365.50537109 C-465.8594825 373.42790677 -475.27276452 381.7319963 -484.56738281 390.15380859 C-486.61417702 391.99993671 -488.68010463 393.82030393 -490.75878906 395.63037109 C-494.6085064 398.98534565 -498.40531905 402.39675181 -502.19628906 405.81787109 C-504.67144237 408.05154603 -507.15247218 410.27854825 -509.63378906 412.50537109 C-514.85301166 417.20348566 -520.0329263 421.94374467 -525.20117188 426.69775391 C-526.22875025 427.64286831 -527.25673638 428.58753961 -528.28515625 429.53173828 C-531.52502574 432.50662164 -534.75663701 435.49020242 -537.98095703 438.48193359 C-539.18177301 439.59535154 -540.38395727 440.70729535 -541.58740234 441.81787109 C-552.34277309 451.75529021 -562.73768675 462.02404828 -573.02929688 472.43774414 C-581.53065093 481.01916418 -581.53065093 481.01916418 -585.81738281 484.62646484 C-589.64753393 487.88998772 -592.96682528 491.55963638 -596.32731628 495.29020691 C-599.87113354 499.20703771 -603.52864963 502.98468003 -607.27441406 506.70849609 C-607.82601196 507.25687134 -608.37760986 507.80524658 -608.94592285 508.37023926 C-610.63163123 510.04222974 -612.31974675 511.71174898 -614.00878906 513.38037109 C-623.4644804 522.68654409 -623.4644804 522.68654409 -632.3671875 532.51611328 C-634.85698514 535.40427854 -637.61820008 538.00890417 -640.35253906 540.66162109 C-642.97789496 543.35516805 -645.4253434 546.16715311 -647.88964844 549.00732422 C-651.53568746 553.14864545 -655.35931741 557.12515566 -659.15332031 561.13037109 C-662.9077873 565.11026156 -666.56449797 569.1550642 -670.15136719 573.28662109 C-672.31600121 575.76950629 -674.53435093 578.2010505 -676.75878906 580.63037109 C-681.77792427 586.13936184 -686.69999342 591.71760626 -691.54003906 597.38427734 C-692.57124736 598.59134422 -693.60249854 599.79837447 -694.63378906 601.00537109 C-695.15352295 601.61396973 -695.67325684 602.22256836 -696.20874023 602.84960938 C-699.23784501 606.38680067 -702.31035209 609.87438163 -705.44628906 613.31787109 C-709.22047593 617.47759318 -712.77665019 621.78071259 -716.30957031 626.14599609 C-719.07690041 629.51799002 -721.91040672 632.8268926 -724.75878906 636.13037109 C-729.00308942 641.05917184 -733.17750295 646.03403792 -737.27832031 651.08349609 C-739.8280669 654.21546827 -742.39599154 657.33180774 -744.96704102 660.44628906 C-752.91108465 670.07118564 -760.71954085 679.79076123 -768.41625977 689.61425781 C-771.30245723 693.29316069 -774.21382253 696.95028197 -777.14550781 700.59301758 C-783.55593485 708.56083347 -789.79445436 716.64923979 -795.97998047 724.79248047 C-797.86366268 727.26820664 -799.75399476 729.73874848 -801.64550781 732.20849609 C-809.89116054 742.98404228 -818.01875302 753.83726911 -826.03662109 764.78320312 C-827.7816952 767.1615902 -829.53286523 769.53536243 -831.28613281 771.90771484 C-843.42411464 788.33235075 -855.34674994 804.89059856 -867.0234375 821.64648438 C-868.68131319 824.0194764 -870.34720379 826.38656873 -872.01660156 828.75146484 C-882.81303841 844.06423692 -893.29463401 859.58955241 -903.75878906 875.13037109 C-904.3649707 876.03062012 -904.97115234 876.93086914 -905.59570312 877.85839844 C-914.7840078 891.52706839 -923.76957076 905.33033999 -932.75878906 919.13037109 C-933.29955078 919.96020508 -933.8403125 920.79003906 -934.39746094 921.64501953 C-941.6222458 932.74125286 -948.71854238 943.91626388 -955.75878906 955.13037109 C-956.33113281 956.04173828 -956.90347656 956.95310547 -957.49316406 957.89208984 C-961.93005792 964.96218375 -966.35025972 972.04255804 -970.75878906 979.13037109 C-971.39300781 980.1498584 -972.02722656 981.1693457 -972.68066406 982.21972656 C-981.95759239 997.15567545 -991.01126476 1012.21319529 -999.96113586 1027.34634399 C-1000.55320076 1028.34738663 -1000.55320076 1028.34738663 -1001.15722656 1029.36865234 C-1001.7447596 1030.36208145 -1001.7447596 1030.36208145 -1002.34416199 1031.37557983 C-1005.40648749 1036.54803919 -1008.50458676 1041.69833104 -1011.61254883 1046.84350586 C-1020.24174512 1061.13435564 -1028.53309286 1075.60527633 -1036.75878906 1090.13037109 C-1037.33371094 1091.14373535 -1037.90863281 1092.15709961 -1038.50097656 1093.20117188 C-1046.36873674 1107.06902264 -1054.17553137 1120.97109429 -1061.94970703 1134.89160156 C-1063.16402714 1137.0655787 -1064.37920808 1139.23907521 -1065.59521484 1141.41210938 C-1074.53803196 1157.39807174 -1083.28491371 1173.47864087 -1091.89697266 1189.64501953 C-1093.72349363 1193.06429745 -1095.56129134 1196.47723873 -1097.40332031 1199.88818359 C-1106.33789747 1216.44978061 -1114.98471283 1233.1465987 -1123.55883789 1249.89685059 C-1126.32500794 1255.29617234 -1129.1236775 1260.67798258 -1131.93310547 1266.05493164 C-1145.60823363 1292.24962945 -1158.85356144 1318.69380337 -1171.46777344 1345.41601562 C-1172.88722247 1348.40040185 -1174.32875814 1351.37343724 -1175.77441406 1354.34521484 C-1182.45045342 1368.08041182 -1188.89309686 1381.9003918 -1195.1784668 1395.81738281 C-1198.57721684 1403.34117327 -1202.01185045 1410.84449504 -1205.51855469 1418.31884766 C-1214.63420969 1437.75984521 -1223.21349655 1457.43346764 -1231.75878906 1477.13037109 C-1232.17447144 1478.08784241 -1232.59015381 1479.04531372 -1233.01843262 1480.03179932 C-1264.83136168 1553.33925711 -1294.21177441 1627.65033149 -1320.98248291 1702.9486084 C-1321.75817819 1705.12865426 -1322.53634063 1707.30780674 -1323.31494141 1709.48681641 C-1350.95668918 1786.93534289 -1375.6468119 1865.43105094 -1397.22753906 1944.78271484 C-1397.48366974 1945.72334274 -1397.73980042 1946.66397064 -1398.00369263 1947.63310242 C-1399.14197148 1951.82245895 -1400.26957258 1956.01414139 -1401.37548828 1960.2121582 C-1404.31933947 1971.27916431 -1407.33114466 1982.19997952 -1414.88378906 1991.06787109 C-1415.35534424 1991.64504883 -1415.82689941 1992.22222656 -1416.31274414 1992.81689453 C-1417.77888881 1994.6020198 -1419.2654671 1996.36794672 -1420.75878906 1998.13037109 C-1421.23719238 1998.69965332 -1421.7155957 1999.26893555 -1422.20849609 1999.85546875 C-1424.53450537 2002.62331648 -1426.87239572 2005.38059287 -1429.21972656 2008.13037109 C-1432.04066966 2011.46342386 -1434.763659 2014.86255862 -1437.47753906 2018.28271484 C-1444.6567463 2027.24443072 -1451.99063447 2036.08510927 -1459.44628906 2044.81787109 C-1463.1255749 2049.12831191 -1466.66253727 2053.52601435 -1470.13378906 2058.00537109 C-1474.58948309 2063.75051232 -1479.2702137 2069.26131475 -1484.05859375 2074.73095703 C-1487.97510863 2079.20797494 -1491.77205974 2083.76580046 -1495.51660156 2088.38818359 C-1498.0613253 2091.50037185 -1500.6549453 2094.56765874 -1503.25878906 2097.63037109 C-1507.48016339 2102.59703937 -1511.62791555 2107.61809752 -1515.74316406 2112.67333984 C-1518.36557699 2115.87004088 -1521.05091612 2119.00590231 -1523.75878906 2122.13037109 C-1543.23947695 2102.6496832 -1543.98423576 2045.95454387 -1544.13378906 2020.56787109 C-1543.82268096 1967.91282393 -1524.01997125 1924.40694727 -1500.85424805 1878.35644531 C-1494.58276064 1865.87452281 -1488.55974506 1853.3189316 -1482.75097656 1840.61474609 C-1479.84964545 1834.28142292 -1476.81796304 1828.01548904 -1473.76608276 1821.75360107 C-1467.7377778 1809.38172025 -1461.96281176 1796.90948154 -1456.29882812 1784.36694336 C-1455.67224518 1782.97947202 -1455.04561783 1781.59202073 -1454.41894531 1780.20458984 C-1453.9575264 1779.18290459 -1453.9575264 1779.18290459 -1453.48678589 1778.14057922 C-1450.42081894 1771.3629358 -1447.28074689 1764.62078879 -1444.13378906 1757.88037109 C-1437.82978966 1744.35279982 -1431.70959809 1730.74597805 -1425.64099121 1717.11157227 C-1424.73478265 1715.07645882 -1423.82749723 1713.04182848 -1422.91992188 1711.00732422 C-1406.99960492 1675.31538647 -1391.26268696 1639.5468707 -1375.94973755 1603.58970642 C-1373.57088907 1598.01113731 -1371.15747343 1592.44856395 -1368.72753906 1586.89208984 C-1350.90693565 1546.02490709 -1346.21155371 1508.61619219 -1350.35791016 1464.46923828 C-1358.91343577 1372.80829887 -1351.25114478 1281.3885284 -1304.75878906 1152.13037109 C-1304.49281921 1151.53504578 -1304.22684937 1150.93972046 -1303.95281982 1150.32635498 C-1296.4817905 1133.6041737 -1288.47969798 1117.37324147 -1279.18798828 1101.56738281 C-1277.0734729 1097.96179816 -1275.01160507 1094.32676958 -1272.94628906 1090.69287109 C-1271.88438175 1088.83836492 -1270.8221585 1086.98403927 -1269.75878906 1085.13037109 C-1269.09878906 1085.13037109 -1268.43878906 1085.13037109 -1267.75878906 1085.13037109 C-1263.79878906 1136.11537109 -1263.79878906 1136.11537109 -1259.75878906 1188.13037109 C-1258.1147282 1181.60738191 -1258.1147282 1181.60738191 -1256.78833008 1175.05859375 C-1256.62332001 1174.13745789 -1256.45830994 1173.21632202 -1256.28829956 1172.26727295 C-1256.11485016 1171.28623596 -1255.94140076 1170.30519897 -1255.76269531 1169.29443359 C-1255.37164938 1167.11967703 -1254.97993652 1164.94504031 -1254.58764648 1162.77050781 C-1254.38207123 1161.62902283 -1254.17649597 1160.48753784 -1253.96469116 1159.3114624 C-1235.6411467 1058.03700704 -1208.23641613 958.42538386 -1136.75878906 786.13037109 C-1136.2840918 785.12458008 -1135.80939453 784.11878906 -1135.3203125 783.08251953 C-1123.94492176 759.03191314 -1112.25254573 735.10357059 -1099.28320312 711.8671875 C-1097.67815177 708.98560107 -1096.08909992 706.09553652 -1094.50097656 703.20458984 C-1086.66909336 689.01049903 -1078.41987922 675.10196971 -1069.92735291 661.29728699 C-1067.59573023 657.50511139 -1065.29117942 653.69777957 -1063.00097656 649.88037109 C-1055.04305752 636.68120913 -1046.64311516 623.83239017 -1038.00878906 611.06787109 C-1037.48889404 610.29903595 -1036.96899902 609.53020081 -1036.43334961 608.73806763 C-1029.00798027 597.77425673 -1021.43652837 586.91877179 -1013.75878906 576.13037109 C-1013.09878906 575.20281006 -1012.43878906 574.27524902 -1011.75878906 573.31958008 C-1004.94173214 563.77510029 -997.96437956 554.38460987 -990.75878906 545.13037109 C-989.52611975 543.52790098 -988.29651421 541.92311311 -987.06713867 540.31811523 C-973.86456347 523.09500273 -960.22036876 506.25889567 -946.13720703 489.74707031 C-944.67683619 488.03425138 -943.21985828 486.31857578 -941.76269531 484.60302734 C-936.27417402 478.15587349 -930.70483614 471.80827186 -924.98144531 465.56787109 C-923.08457142 463.48764384 -921.22485963 461.38480212 -919.38378906 459.25537109 C-915.40322989 454.68097559 -911.283932 450.23606677 -907.15625 445.79492188 C-905.0815615 443.56085651 -903.01534228 441.31972085 -900.9597168 439.06811523 C-890.23943117 427.38693983 -878.99976977 416.21807764 -867.77978516 405.02099609 C-864.9323946 402.17935038 -862.08958595 399.33316947 -859.24804115 396.48567963 C-857.02778587 394.26179191 -854.80513139 392.04031429 -852.58176804 389.8195343 C-851.53260639 388.771032 -850.48416544 387.72180798 -849.43651199 386.67179871 C-843.72073388 380.94596609 -837.95127411 375.34471373 -831.75878906 370.13037109 C-827.44834396 371.69780568 -823.71411211 373.83824043 -819.75878906 376.13037109 C-822.81203085 392.25836206 -825.997432 408.35248043 -829.36174965 424.41842461 C-830.08254583 427.86120411 -830.80053266 431.30455996 -831.51786804 434.74806213 C-833.55283097 444.51422336 -835.59288285 454.27931977 -837.6340332 464.04418945 C-838.89366933 470.07122537 -840.15043504 476.09885417 -841.40547752 482.12684822 C-842.11228936 485.5170508 -842.82251422 488.90652722 -843.53279114 492.29600525 C-843.96158437 494.35460539 -844.3901986 496.41324284 -844.81860352 498.47192383 C-845.01646454 499.41146912 -845.21432556 500.3510144 -845.41818237 501.31903076 C-845.59606796 502.17748093 -845.77395355 503.03593109 -845.95722961 503.9203949 C-846.11297109 504.66554069 -846.26871256 505.41068647 -846.42917347 506.17841244 C-846.84204243 508.29345906 -846.84204243 508.29345906 -846.75878906 511.13037109 C-846.16565918 510.23543945 -845.5725293 509.34050781 -844.96142578 508.41845703 C-833.75468114 491.5183023 -822.54494242 474.63466321 -810.75878906 458.13037109 C-810.23591309 457.39431641 -809.71303711 456.65826172 -809.17431641 455.89990234 C-801.53832394 445.15937167 -793.63268011 434.64151262 -785.61816406 424.18115234 C-782.19385704 419.7097781 -778.81281882 415.20781206 -775.44628906 410.69287109 C-763.69214804 394.96969746 -751.37880552 379.6596138 -738.64599609 364.71875 C-735.76096522 361.33050378 -732.93374055 357.9016347 -730.13378906 354.44287109 C-726.51044411 349.99133301 -722.73915034 345.70654654 -718.87597656 341.46240234 C-716.97827737 339.3721322 -715.11145492 337.26050994 -713.25878906 335.13037109 C-709.90260451 331.27926531 -706.49004713 327.48102295 -703.06738281 323.68896484 C-701.57759626 322.03784777 -700.09042029 320.38436965 -698.60644531 318.72802734 C-696.33087775 316.18910296 -694.04479969 313.65989639 -691.75878906 311.13037109 C-691.02281494 310.30754639 -690.28684082 309.48472168 -689.52856445 308.63696289 C-679.64682267 297.74554635 -669.19215847 287.41135542 -658.78515625 277.02636719 C-656.04308844 274.29003164 -653.30558611 271.54917927 -650.56936264 268.80700111 C-648.43317244 266.66717588 -646.29457995 264.52976424 -644.15528107 262.39304733 C-643.14519467 261.38362022 -642.13582876 260.37347154 -641.12725067 259.36253738 C-636.04445789 254.2704609 -630.93977849 249.26919892 -625.46461487 244.5980835 C-622.53714202 242.07925174 -619.75489958 239.40497304 -616.94628906 236.75537109 C-611.90313088 232.03164 -606.7318793 227.56202819 -601.33691406 223.23974609 C-598.73452617 221.11051963 -596.24303404 218.89587752 -593.75878906 216.63037109 C-588.58331932 211.92613721 -583.20735016 207.51321622 -577.75878906 203.13037109 C-576.64922123 202.22826447 -575.53985466 201.32591026 -574.43066406 200.42333984 C-564.87765233 192.68167497 -555.08221077 185.28450922 -545.20849609 177.95800781 C-543.00361061 176.31302348 -540.81424166 174.65010393 -538.62988281 172.97802734 C-465.82527849 117.69421779 -382.16618104 74.92143805 -279.75878906 41.13037109 C-277.87933594 40.52346436 -277.87933594 40.52346436 -275.96191406 39.90429688 C-204.0744328 16.89991047 -128.04910065 4.93400358 -52.75878906 1.13037109 C-51.92899536 1.0876709 -51.09920166 1.0449707 -50.2442627 1.00097656 C-33.49646159 0.16598379 -16.76477482 -0.02812901 0 0 Z " fill="#0078D8" transform="translate(1837.7587890625,-0.13037109375)"/>
<path d="M0 0 C1.97269375 0.33486326 3.94538799 0.66972368 5.9181118 1.00440979 C50.35412923 8.56001144 94.59887468 17.21966987 138.79296875 26.06640625 C140.43903296 26.39588005 140.43903296 26.39588005 142.11835098 26.73200989 C152.94736118 28.90044438 163.77513003 31.07485174 174.59943771 33.26664734 C228.06952311 44.10717373 228.06952311 44.10717373 281.9375 52.6875 C282.93549622 52.82747406 283.93349243 52.96744812 284.96173096 53.11166382 C329.56908781 59.36243477 374.31090313 63.17002366 419.375 63.125 C420.50624298 63.12439575 421.63748596 63.1237915 422.80300903 63.12316895 C441.96089651 63.09557338 460.97529519 62.62561008 480.0625 60.9375 C480.78362976 60.87433594 481.50475952 60.81117187 482.2477417 60.74609375 C542.47195057 55.40867439 601.15301062 42.35266088 657.74609375 20.9296875 C658.65821625 20.58472733 659.57033875 20.23976715 660.51010132 19.88435364 C665.04691678 18.1648598 669.57744605 16.43068957 674.10058594 14.67553711 C675.75842578 14.04010329 677.41630164 13.40476345 679.07421875 12.76953125 C679.83842636 12.4680014 680.60263397 12.16647156 681.38999939 11.85580444 C686.72346817 9.82448939 686.72346817 9.82448939 690.0625 10.9375 C611.62879833 62.03474976 518.66706543 78.3076791 413.0625 80.9375 C412.16660156 80.95409668 411.27070312 80.97069336 410.34765625 80.98779297 C404.91613342 81.07929741 399.49368224 81.03421711 394.0625 80.9375 C392.88816406 80.91961426 391.71382812 80.90172852 390.50390625 80.88330078 C301.40762518 79.44906593 213.34648147 66.03910269 64.32421875 36.953125 C59.778808 36.03044853 55.23323814 35.10856211 50.6875 34.1875 C49.60555359 33.96798676 48.52360718 33.74847351 47.40887451 33.52230835 C20.39985373 28.06008575 -6.75984801 23.47182508 -33.9375 18.9375 C-31.40303348 24.20195676 -28.86158987 29.46297151 -26.31420898 34.72119141 C-25.45235619 36.5025353 -24.59226762 38.28473408 -23.73413086 40.06787109 C-19.06339948 49.7700925 -14.26153049 59.3177439 -8.90658569 68.66156006 C-6.30002986 73.22869503 -3.97022415 77.7638361 -2.125 82.6875 C-1.7081897 83.7863855 -1.7081897 83.7863855 -1.28295898 84.9074707 C6.1672424 105.49921063 8.30360336 127.87774394 -0.58984375 148.4375 C-10.2801905 166.41379542 -26.06442814 176.89915017 -45.20703125 182.6484375 C-113.04407441 201.69771142 -199.31724718 169.35358023 -264.34771729 148.75445557 C-271.81145026 146.39999619 -279.29194785 144.09876297 -286.76837158 141.78500366 C-289.38512573 140.97314041 -292.00016425 140.15598637 -294.61474609 139.3371582 C-315.08705505 132.42577388 -315.08705505 132.42577388 -336.25 128.6875 C-337.00708252 128.61869629 -337.76416504 128.54989258 -338.54418945 128.47900391 C-347.98792931 127.67050071 -357.46785633 127.29555618 -366.9375 126.9375 C-366.42533936 127.83335815 -366.42533936 127.83335815 -365.90283203 128.74731445 C-359.67839007 139.65207802 -353.53082221 150.57462231 -347.75292969 161.72314453 C-344.42176696 168.11077636 -340.88424414 174.36933358 -337.3125 180.625 C-311.56058714 225.93759927 -311.56058714 225.93759927 -317.25 251.4609375 C-319.33422422 258.96888156 -322.92151396 265.02058443 -327.9375 270.9375 C-328.42734375 271.52273438 -328.9171875 272.10796875 -329.421875 272.7109375 C-356.88997719 302.76267306 -418.16588602 308.18842076 -455.9375 309.9375 C-461.58258924 310.13037775 -467.22693589 310.18298271 -472.875 310.1875 C-473.64796417 310.18817474 -474.42092834 310.18884949 -475.21731567 310.18954468 C-529.02580902 310.11603862 -586.9954342 299.03815506 -635.9375 275.9375 C-635.9375 275.6075 -635.9375 275.2775 -635.9375 274.9375 C-627.53996762 275.48029049 -619.31394351 276.56807741 -611.01686096 277.95850182 C-608.90639556 278.31187587 -606.7949854 278.65903046 -604.68322754 279.0045929 C-601.67294998 279.4972573 -598.66293593 279.99148169 -595.65310669 280.48687744 C-552.32650231 287.60476001 -509.36110584 293.8775513 -465.3125 291.1875 C-464.60706055 291.14459839 -463.90162109 291.10169678 -463.17480469 291.05749512 C-414.29500167 288.64677255 -414.29500167 288.64677255 -371.9375 266.9375 C-363.7013092 256.4222106 -361.85202027 247.1302536 -362.9375 233.9375 C-366.01259338 216.73254715 -375.70918549 201.72949795 -385.91015625 187.8984375 C-415.38883166 147.8639624 -415.38883166 147.8639624 -412.9375 122.9375 C-411.77152278 116.32341683 -407.96771299 111.2760587 -402.9375 106.9375 C-387.20967605 96.31642377 -367.70604404 97.43490872 -349.5625 97.5625 C-347.80190247 97.56947906 -347.80190247 97.56947906 -346.0057373 97.57659912 C-326.49839602 97.66707352 -307.29320649 98.4562779 -287.9375 100.9375 C-287.1660968 101.03460266 -286.3946936 101.13170532 -285.59991455 101.23175049 C-248.63278007 105.90394565 -212.60799817 113.75142096 -176.41618729 122.46360016 C-120.52019773 139.9131291 -120.52019773 139.9131291 -65.3125 132.1875 C-61.02284672 129.33933735 -59.12043497 127.09171667 -57.9375 121.9375 C-57.1667674 113.2706119 -58.79034701 104.98420782 -60.59863281 96.55786133 C-61.06164067 94.37904384 -61.49244142 92.19541586 -61.921875 90.00976562 C-63.40101802 82.81230679 -65.20847771 76.89989092 -69.34082031 70.7331543 C-73.06199606 64.21768282 -74.96389643 56.73976236 -77.25 49.625 C-77.79126595 47.97816957 -78.3335766 46.33168212 -78.87695312 44.68554688 C-79.39416822 43.10707822 -79.91047717 41.5283123 -80.42578125 39.94921875 C-80.66428299 39.21893967 -80.90278473 38.48866058 -81.14851379 37.73625183 C-83.24281719 31.20986354 -84.95152473 24.81576412 -83.9375 17.9375 C-77.5818526 6.97948725 -61.94766414 1.30758194 -50.42578125 -2.1015625 C-33.25329681 -6.21680513 -17.09148136 -2.94494689 0 0 Z " fill="#0072D6" transform="translate(1065.9375,1876.0625)"/>
</svg>
